<?xml version="1.0" encoding="utf-8"?>
<!-- Generator: Adobe Illustrator 23.0.3, SVG Export Plug-In . SVG Version: 6.00 Build 0)  -->
<svg version="1.1" id="Layer_1" xmlns="http://www.w3.org/2000/svg" xmlns:xlink="http://www.w3.org/1999/xlink" x="0px" y="0px"
	 viewBox="0 0 440.3 512" style="enable-background:new 0 0 440.3 512;" xml:space="preserve">
<style type="text/css">
	.st0{opacity:0.1;fill:#F9A826;enable-background:new    ;}
	.st1{fill:#F9A826;}
	.st2{fill:#444053;}
	.st3{fill:none;stroke:#444053;stroke-miterlimit:10;}
	.st4{fill:none;stroke:#444053;stroke-width:0.75;stroke-miterlimit:10;}
	.st5{fill:#33323D;}
	.st6{fill:#FFFFFF;}
	.st7{fill:#504F60;}
	.st8{opacity:0.1;fill:#33323D;enable-background:new    ;}
	.st9{opacity:0.8;fill:#8CCF4D;enable-background:new    ;}
	.st10{opacity:0.8;fill:#FA5959;enable-background:new    ;}
	.st11{fill:#FBBEBE;}
	.st12{opacity:5.000000e-02;enable-background:new    ;}
	.st13{fill:#3F3D56;}
	.st14{fill:#464353;}
	.st15{fill:url(#SVGID_1_);}
	.st16{fill:#65617D;}
	.st17{opacity:0.1;enable-background:new    ;}
	.st18{fill:#EE8E9E;}
	.st19{fill:#E3E8F4;}
	.st20{fill:#E6E8EC;}
	.st21{fill:#565387;}
	.st22{opacity:0.1;}
	.st23{fill:#A1616A;}
	.st24{fill:#514E7F;}
	.st25{fill:url(#SVGID_2_);}
	.st26{fill:#F4BA51;}
	.st27{fill:#FFDEAE;}
</style>
<g>
	<path class="st1" d="M236.2,0c0.8,1.2,2.1,1.6,3.4,1.7c27.5,3.6,50.4,16.5,71.4,34.1c29.9,25,60.3,49.2,90.8,73.5
		c16.4,13.1,29.4,28.4,35.1,49.1c4.1,14.7,4.4,29.6,0.7,44.4c-3.1,12.4-13.4,19.4-24.4,16.7c-11.5-2.8-17.4-13.8-14.5-26.7
		c3.9-16.7-0.4-31.2-12.2-43.6c-5.5-5.8-12.1-10.4-18.3-15.5c-30.8-25.1-61.7-50.3-92.7-75.1c-8.6-6.9-18.5-11.9-29.3-14.7
		c-5.3,1.6-10.5,0-15.7-0.6c-25.2-3.1-47.6,3.9-67.1,19.6c-23.9,19.2-47.6,38.6-71.4,57.9C80.8,130,69.5,139,58.3,148.3
		c-20.7,17.1-20.6,51,0.3,67.7c35.7,28.7,70.9,58,106.9,86.4c21.1,16.6,45.1,22,71.5,17.4c3.5-0.6,6.9-0.8,10.4,0.2
		c14.7-4.8,27.3-13,38.6-23.3c3.1-2.8,6.2-5.6,9.5-8.1c8.9-6.9,21-5.9,27.9,2.3c7.4,8.8,6.4,20.9-2.4,28.6
		c-13.6,11.7-26.9,23.9-43.5,31.5c-42.5,19.2-84,17.7-124.4-5.7c-19.1-11.1-34.8-26.7-52.1-40.3c-17.1-13.5-34-27.4-50.9-41.2
		c-7.1-5.8-14.4-11.3-21.1-17.6c-40-37.7-38.3-96.9,4.1-132c29.9-24.7,60.3-48.8,90.3-73.4c13.8-11.3,27.5-22.5,44.1-29.7
		c9.4-4.1,19.1-6.8,29.1-8.9c1.7-0.4,3.8-0.1,4.7-2.1C212.9,0,224.5,0,236.2,0z"/>
	<path class="st26" d="M116.2,214.1c-4.1-14.8,4.2-23.2,14.6-31.8c20.3-16.6,42.5-28.6,68.6-32.6c37.2-5.7,71.1,2.5,100.7,25.6
		c32.9,25.6,64.8,52.4,97.3,78.4c13.7,11,26.6,22.5,34.4,38.8c17.4,36.5,7.4,79.5-25,105.8c-34.3,27.9-68.6,55.6-102.8,83.5
		c-17.7,14.4-37.7,23.7-60,28.1c-1.4,0.3-3.6-0.6-3.8,2.1c-13.3,0-26.7,0-40,0c0.2-1.8-1.2-1.7-2.3-1.9c-27-4.5-49.4-17.7-70.2-35
		c-31-25.8-62.6-50.8-93.8-76.3C8.1,377.6-2.9,350.3,1.2,316.9c1.6-12.7,10.1-18.3,19.1-18.9c9.9-0.6,18.3,6.1,20.6,16
		c0.6,2.8,0.4,5.6,0,8.4c-2.5,17.6,3,32.4,16.6,43.6c35.1,28.9,70.4,57.6,105.9,85.9c33.9,27,81.3,26.4,115-1.1
		c13.8-11.3,27.6-22.5,41.4-33.8c11.6-9.5,23.3-18.8,35-28.1c9-7.3,18.1-14.5,27-21.9c24.4-20.2,24.6-53.8,0.2-74
		c-23.8-19.6-47.8-38.9-71.7-58.3c-12.6-10.2-24.9-20.9-38.1-30.4c-18.1-13-38.8-18-61-15.9c-21.8,2-40,11.6-56.1,26
		c-4,3.5-7.8,7.3-12.9,9.3c-4.2,1.6-8.5,1-12.8,1.2c-1.4,2.2-3,1.5-4.6,0.3c-3.6-2.4-6.9-5.1-9-9c-0.1-0.5,0-1.1,0.3-1.5
		C116,214.6,116.1,214.4,116.2,214.1z"/>
	<path class="st27" d="M117.2,214.9c3.2,4.4,7.1,7.8,12.1,10.1c14.3,11.9,28.6,23.8,43,35.7c19.7,16.2,39.5,32.3,59.1,48.5
		c5,4.2,10.6,7.3,16,10.8c-33.4,8.9-63.1,2.2-89.5-20.2c-12.4-10.6-25.3-20.6-38-30.9c-20.4-16.6-40.9-33.1-61.2-49.8
		c-24.6-20.1-24.6-54.4,0-74.3c34.5-28,68.9-56.2,103.6-84c25-20,53.2-25.5,84.1-16.9c-21.5,13.6-39.8,31.2-59.4,47.1
		c-33.9,27.4-67.4,55.4-101.1,83.2c-7.6,6.3-7.7,9.5,0.1,15.6c10.2,8,19.7,16.9,30.4,24.3c0,0-0.1-0.1-0.1-0.1
		C116.5,214.3,116.8,214.6,117.2,214.9z"/>
</g>
</svg>
